<svg viewBox="0 0 491 491" fill="none" xmlns="http://www.w3.org/2000/svg">
<g clip-path="url(#clip0_0_1)">
<path d="M222.5 453.5C228.6 459.6 236.8 463 245.4 463C253.9 463 262.3 459.5 268.3 453.5L448 273.8C475.3 246.5 490.3 210.2 490.4 171.7C490.4 133.1 475.4 96.8 448.1 69.5C420.8 42.2 384.6 27.2 346 27.2C308.1 27.2 272.4 41.7 245.3 68.1C218.1 41.6 182.3 27 144.3 27C105.8 27 69.6 42 42.3 69.2C15 96.5 0 132.8 0 171.4C0 209.9 15.1 246.2 42.4 273.5L222.5 453.5Z" fill="#FF0000"/>
</g>
<defs>
<clipPath id="clip0_0_1">
<rect width="490.4" height="490.4" fill="white"/>
</clipPath>
</defs>
</svg>
